<svg width="25" height="25" viewBox="0 0 25 25" fill="none" xmlns="http://www.w3.org/2000/svg">
<path d="M2.5 11.5808H22.5V20.5808C22.5 20.846 22.3946 21.1004 22.2071 21.2879C22.0196 21.4755 21.7652 21.5808 21.5 21.5808H3.5C3.23478 21.5808 2.98043 21.4755 2.79289 21.2879C2.60536 21.1004 2.5 20.846 2.5 20.5808V11.5808ZM17.5 3.58081H21.5C21.7652 3.58081 22.0196 3.68617 22.2071 3.8737C22.3946 4.06124 22.5 4.31559 22.5 4.58081V9.58081H2.5V4.58081C2.5 4.31559 2.60536 4.06124 2.79289 3.8737C2.98043 3.68617 3.23478 3.58081 3.5 3.58081H7.5V1.58081H9.5V3.58081H15.5V1.58081H17.5V3.58081Z" fill="black"/>
</svg>
