<svg width="24" height="25" viewBox="0 0 24 25" fill="none" xmlns="http://www.w3.org/2000/svg">
<path d="M12 22.5808C6.477 22.5808 2 18.1038 2 12.5808C2 7.05781 6.477 2.58081 12 2.58081C17.523 2.58081 22 7.05781 22 12.5808C22 18.1038 17.523 22.5808 12 22.5808ZM8.5 14.5808V16.5808H11V18.5808H13V16.5808H14C14.663 16.5808 15.2989 16.3174 15.7678 15.8486C16.2366 15.3797 16.5 14.7439 16.5 14.0808C16.5 13.4178 16.2366 12.7819 15.7678 12.313C15.2989 11.8442 14.663 11.5808 14 11.5808H10C9.86739 11.5808 9.74021 11.5281 9.64645 11.4344C9.55268 11.3406 9.5 11.2134 9.5 11.0808C9.5 10.9482 9.55268 10.821 9.64645 10.7273C9.74021 10.6335 9.86739 10.5808 10 10.5808H15.5V8.58081H13V6.58081H11V8.58081H10C9.33696 8.58081 8.70107 8.8442 8.23223 9.31304C7.76339 9.78188 7.5 10.4178 7.5 11.0808C7.5 11.7439 7.76339 12.3797 8.23223 12.8486C8.70107 13.3174 9.33696 13.5808 10 13.5808H14C14.1326 13.5808 14.2598 13.6335 14.3536 13.7273C14.4473 13.821 14.5 13.9482 14.5 14.0808C14.5 14.2134 14.4473 14.3406 14.3536 14.4344C14.2598 14.5281 14.1326 14.5808 14 14.5808H8.5Z" fill="black"/>
</svg>
