<svg width="25" height="25" viewBox="0 0 25 25" fill="none" xmlns="http://www.w3.org/2000/svg">
<path d="M20.5 22.5808H4.5V20.5808C4.5 19.2547 5.02678 17.983 5.96447 17.0453C6.90215 16.1076 8.17392 15.5808 9.5 15.5808H15.5C16.8261 15.5808 18.0979 16.1076 19.0355 17.0453C19.9732 17.983 20.5 19.2547 20.5 20.5808V22.5808ZM12.5 13.5808C11.7121 13.5808 10.9319 13.4256 10.2039 13.1241C9.47595 12.8226 8.81451 12.3806 8.25736 11.8235C7.70021 11.2663 7.25825 10.6049 6.95672 9.87691C6.65519 9.14896 6.5 8.36874 6.5 7.58081C6.5 6.79288 6.65519 6.01266 6.95672 5.28471C7.25825 4.55676 7.70021 3.89532 8.25736 3.33817C8.81451 2.78102 9.47595 2.33906 10.2039 2.03753C10.9319 1.73601 11.7121 1.58081 12.5 1.58081C14.0913 1.58081 15.6174 2.21295 16.7426 3.33817C17.8679 4.46339 18.5 5.98951 18.5 7.58081C18.5 9.17211 17.8679 10.6982 16.7426 11.8235C15.6174 12.9487 14.0913 13.5808 12.5 13.5808Z" fill="black"/>
</svg>
