<svg width="102" height="103" viewBox="0 0 102 103" fill="none" xmlns="http://www.w3.org/2000/svg">
<path d="M19.4777 74.1951C15.1003 69.5456 12.75 64.3309 12.75 55.8776C12.75 41.0026 23.1922 27.6704 38.3775 21.0786L42.1727 26.9351C27.999 34.6021 25.228 44.5514 24.123 50.8244C26.4052 49.6429 29.393 49.2306 32.3212 49.5026C39.9882 50.2124 46.0317 56.5066 46.0317 64.3309C46.0317 68.276 44.4646 72.0595 41.675 74.8491C38.8854 77.6387 35.1018 79.2059 31.1567 79.2059C26.5965 79.2059 22.236 77.1234 19.4777 74.1951ZM61.9777 74.1951C57.6002 69.5456 55.25 64.3309 55.25 55.8776C55.25 41.0026 65.6922 27.6704 80.8775 21.0786L84.6727 26.9351C70.499 34.6021 67.728 44.5514 66.623 50.8244C68.9052 49.6429 71.893 49.2306 74.8212 49.5026C82.4882 50.2124 88.5317 56.5066 88.5317 64.3309C88.5317 68.276 86.9646 72.0595 84.175 74.8491C81.3854 77.6387 77.6018 79.2059 73.6567 79.2059C69.0965 79.2059 64.736 77.1234 61.9777 74.1951Z" fill="white" fill-opacity="0.15"/>
</svg>
