<svg width="24" height="25" viewBox="0 0 24 25" fill="none" xmlns="http://www.w3.org/2000/svg">
<path d="M9.33 12.0808H11.5C12.6935 12.0808 13.8381 12.5549 14.682 13.3988C15.5259 14.2427 16 15.3873 16 16.5808H8.999L9 17.5808H17V16.5808C16.9968 15.5168 16.6894 14.4758 16.114 13.5808H19C19.9453 13.5806 20.8712 13.8482 21.6705 14.3529C22.4698 14.8575 23.1097 15.5783 23.516 16.4318C21.151 19.5528 17.322 21.5808 13 21.5808C10.239 21.5808 7.9 20.9908 6 19.9558V10.6518C7.21661 10.8261 8.36547 11.3191 9.33 12.0808ZM5 19.5808C5 19.846 4.89464 20.1004 4.70711 20.2879C4.51957 20.4755 4.26522 20.5808 4 20.5808H2C1.73478 20.5808 1.48043 20.4755 1.29289 20.2879C1.10536 20.1004 1 19.846 1 19.5808V10.5808C1 10.3156 1.10536 10.0612 1.29289 9.8737C1.48043 9.68617 1.73478 9.58081 2 9.58081H4C4.26522 9.58081 4.51957 9.68617 4.70711 9.8737C4.89464 10.0612 5 10.3156 5 10.5808V19.5808ZM18 5.58081C18.7956 5.58081 19.5587 5.89688 20.1213 6.45949C20.6839 7.0221 21 7.78516 21 8.58081C21 9.37646 20.6839 10.1395 20.1213 10.7021C19.5587 11.2647 18.7956 11.5808 18 11.5808C17.2044 11.5808 16.4413 11.2647 15.8787 10.7021C15.3161 10.1395 15 9.37646 15 8.58081C15 7.78516 15.3161 7.0221 15.8787 6.45949C16.4413 5.89688 17.2044 5.58081 18 5.58081ZM11 2.58081C11.7956 2.58081 12.5587 2.89688 13.1213 3.45949C13.6839 4.0221 14 4.78516 14 5.58081C14 6.37646 13.6839 7.13952 13.1213 7.70213C12.5587 8.26474 11.7956 8.58081 11 8.58081C10.2044 8.58081 9.44129 8.26474 8.87868 7.70213C8.31607 7.13952 8 6.37646 8 5.58081C8 4.78516 8.31607 4.0221 8.87868 3.45949C9.44129 2.89688 10.2044 2.58081 11 2.58081Z" fill="black"/>
</svg>
